<?xml version="1.0" standalone="no"?>
<!DOCTYPE svg PUBLIC "-//W3C//DTD SVG 20010904//EN"
 "http://www.w3.org/TR/2001/REC-SVG-20010904/DTD/svg10.dtd">
<svg version="1.0" xmlns="http://www.w3.org/2000/svg"
 width="512.000000pt" height="512.000000pt" viewBox="0 0 512.000000 512.000000"
 preserveAspectRatio="xMidYMid meet">

<g transform="translate(0.000000,512.000000) scale(0.100000,-0.100000)"
fill="#000000" stroke="none">
<path d="M2436 4534 c-84 -20 -172 -70 -240 -137 l-59 -57 -56 21 c-71 27
-208 36 -282 19 -149 -34 -292 -148 -356 -281 l-31 -65 -62 4 c-183 13 -375
-92 -474 -261 l-38 -65 -76 1 c-60 1 -88 -4 -126 -21 -168 -76 -257 -266 -216
-459 6 -27 25 -78 43 -113 l33 -65 -107 -220 c-59 -121 -128 -270 -153 -332
-59 -145 -60 -180 -5 -209 32 -16 70 -11 92 14 8 10 40 78 72 152 31 74 92
208 136 298 l78 164 43 -35 c316 -257 895 -414 1683 -458 215 -12 419 -7 690
17 225 19 276 29 298 55 35 43 13 112 -43 131 -9 3 -67 0 -130 -8 -329 -37
-850 -37 -1185 1 -720 83 -1219 293 -1356 570 -27 56 -33 79 -33 134 0 85 30
151 88 193 38 28 45 29 106 24 36 -3 84 -8 108 -12 56 -8 84 11 101 67 22 74
57 133 104 176 93 86 197 115 321 89 109 -22 135 -10 157 79 38 156 161 265
315 281 72 8 126 -6 222 -54 68 -35 74 -36 99 -22 15 8 44 40 65 70 78 114
168 163 298 163 130 0 220 -49 298 -163 21 -30 50 -62 65 -70 25 -14 31 -13
99 22 97 49 149 61 223 53 152 -16 267 -116 310 -270 29 -101 52 -114 160 -90
191 43 368 -66 426 -264 17 -56 45 -75 101 -67 146 21 163 20 211 -13 62 -42
90 -102 90 -192 0 -91 -39 -172 -124 -258 -81 -81 -154 -130 -302 -202 -148
-71 -291 -119 -485 -164 -122 -29 -151 -39 -169 -60 -30 -34 -29 -67 1 -102
31 -36 61 -35 231 6 333 80 592 192 762 328 23 18 45 33 50 33 18 -2 229 -469
307 -679 59 -158 121 -380 135 -484 26 -188 -88 -368 -339 -537 -744 -500
-2365 -629 -3495 -277 -474 148 -814 372 -916 602 -50 113 -45 196 26 457 37
131 37 158 1 187 -26 22 -86 18 -106 -7 -31 -38 -104 -311 -116 -437 -27 -263
178 -543 542 -741 771 -420 2103 -544 3201 -298 460 103 865 282 1098 484 187
164 289 369 272 549 -24 257 -188 715 -429 1196 l-66 130 29 50 c121 214 46
488 -159 583 -47 22 -70 26 -134 25 l-76 -1 -38 65 c-99 169 -291 274 -474
261 l-62 -4 -31 65 c-64 133 -207 247 -356 281 -74 17 -211 8 -282 -19 l-56
-21 -59 57 c-132 129 -312 180 -488 137z"/>
<path d="M1908 3935 c-54 -20 -120 -68 -152 -109 -59 -78 -90 -196 -64 -246
18 -32 60 -52 93 -44 31 8 65 57 65 93 0 40 37 104 75 130 51 34 113 39 169
11 55 -26 82 -61 96 -126 17 -78 20 -83 51 -100 56 -29 119 13 119 79 0 127
-95 261 -217 307 -63 24 -178 26 -235 5z"/>
<path d="M2974 3930 c-121 -48 -214 -181 -214 -307 0 -66 63 -108 119 -79 31
17 34 22 51 100 14 65 41 100 96 126 56 28 118 23 169 -11 38 -26 75 -90 75
-130 0 -36 34 -85 65 -93 15 -4 38 -1 53 6 39 19 54 54 47 113 -13 109 -89
216 -190 265 -69 34 -198 39 -271 10z"/>
<path d="M1223 3382 c-129 -52 -223 -184 -223 -310 0 -50 49 -97 93 -88 40 8
65 37 72 84 9 58 42 115 82 142 51 35 135 35 186 0 40 -27 73 -84 82 -142 7
-47 32 -76 72 -84 27 -5 37 -1 64 25 30 31 31 35 25 89 -14 116 -86 218 -192
272 -65 33 -197 39 -261 12z"/>
<path d="M2455 3388 c-50 -18 -131 -76 -160 -114 -39 -50 -66 -118 -72 -179
-5 -51 -4 -56 26 -86 27 -26 37 -30 64 -25 40 8 65 37 72 84 9 58 42 115 82
142 51 35 135 35 186 0 40 -27 73 -84 82 -142 7 -47 32 -76 72 -84 27 -5 37
-1 64 25 30 30 31 35 26 87 -12 113 -87 220 -193 274 -39 20 -66 25 -134 27
-47 1 -98 -3 -115 -9z"/>
<path d="M3675 3388 c-50 -18 -131 -76 -160 -114 -38 -50 -64 -113 -71 -177
-6 -53 -5 -57 25 -88 27 -26 37 -30 64 -25 40 8 65 37 72 84 9 58 42 115 82
142 51 35 135 35 186 0 40 -27 73 -84 82 -142 7 -47 32 -76 72 -84 27 -5 37
-1 64 25 30 30 31 35 26 87 -12 113 -89 224 -192 274 -39 20 -68 25 -135 27
-47 1 -98 -3 -115 -9z"/>
<path d="M2165 2186 c-102 -47 -161 -146 -153 -258 5 -78 29 -130 88 -188 122
-123 293 -134 387 -27 47 53 66 124 61 221 -7 122 -55 203 -150 250 -70 35
-162 36 -233 2z m171 -155 c40 -25 58 -77 51 -144 -11 -85 -50 -106 -127 -67
-123 63 -110 226 20 229 14 1 39 -8 56 -18z"/>
<path d="M2722 2184 c-95 -47 -143 -128 -150 -250 -7 -134 37 -228 131 -276
54 -27 152 -22 222 12 60 29 134 100 160 155 27 57 32 154 10 212 -56 147
-233 217 -373 147z m197 -168 c54 -54 24 -154 -59 -196 -75 -38 -118 -17 -127
62 -8 66 12 125 50 149 42 27 101 20 136 -15z"/>
<path d="M1835 1759 c-51 -25 -92 -64 -118 -114 -28 -52 -30 -155 -4 -206 42
-85 135 -144 245 -155 196 -21 308 113 241 291 -25 67 -103 155 -162 184 -57
28 -147 28 -202 0z m159 -169 c35 -31 73 -110 62 -128 -18 -29 -136 -15 -173
20 -33 31 -32 90 3 117 37 29 67 26 108 -9z"/>
<path d="M3083 1759 c-60 -29 -137 -118 -162 -184 -67 -178 45 -312 241 -291
110 11 203 70 245 155 26 52 24 153 -4 207 -26 48 -80 98 -130 119 -52 22
-139 19 -190 -6z m153 -162 c35 -30 37 -77 4 -112 -36 -38 -157 -54 -176 -23
-11 18 27 97 62 128 42 36 73 38 110 7z"/>
<path d="M2460 1608 c-83 -32 -202 -156 -257 -268 -111 -228 -74 -373 103
-410 43 -9 74 -8 154 5 91 14 109 14 197 0 251 -40 366 66 308 285 -27 104
-84 199 -170 286 -64 65 -92 86 -138 103 -72 26 -126 26 -197 -1z m145 -154
c87 -41 203 -218 208 -315 l2 -44 -70 2 c-90 3 -280 3 -370 0 l-70 -2 2 44 c4
96 120 272 206 315 40 20 51 20 92 0z"/>
</g>
</svg>
